<?xml version="1.0" encoding="utf-8"?>
<!-- Generator: Adobe Illustrator 24.1.0, SVG Export Plug-In . SVG Version: 6.00 Build 0)  -->
<svg version="1.1" id="Capa_1" xmlns="http://www.w3.org/2000/svg" xmlns:xlink="http://www.w3.org/1999/xlink" x="0px" y="0px"
	 viewBox="0 0 439.4 395.4" style="enable-background:new 0 0 439.4 395.4;" xml:space="preserve">
<style type="text/css">
	.st0{display:none;}
	.st1{display:inline;fill:none;stroke:#FFB380;stroke-width:2;}
	.st2{display:inline;fill:none;stroke:#808080;stroke-width:1.2259;}
	.st3{fill:#FF6600;}
	.st4{fill:#EAEAEA;}
</style>
<g class="st0">
	<path vector-effect="non-scaling-stroke" class="st1" d="M198.2,110.4c-0.1-0.5,0.1-0.3,0.3-0.4c17.3-3.4,27.6-13.7,31-30.9
		c0.1-0.3,0.1-0.3,0.2,0c5.6,31.7,45.3,43,65.1,16.3c13.5-18.4,6.5-44.8-14.3-54.2c-23.2-10.5-47.3,5-50.8,29.6c0,0.3-0.1,0.3-0.1,0
		c-4.6-44.2-68.5-42.8-71.9,0.9c-1.5,19.2,12.4,35,31.1,38.3c0.3,0.1,0.3,0.1,0,0.2c-17.5,3.6-27.9,14.2-31.1,31.9
		c-0.1,0.3-0.1,0.3-0.1,0c-3.3-28.5-36.2-41.9-58.6-23.8C85.9,128.7,82,146.7,89,161.7c15.4,32.8,62.6,24.4,68.3-10.7
		c0.1-0.3,0.1-0.3,0.2,0c0.4,1.3,0.7,2.6,1.1,4c3.6,14.8,15.2,24.4,30,27c0.8,0.1,0.8,0.3,0,0.4c-27.5,4-40.6,35.9-23.4,58.1
		c19.7,25.5,59.1,13.6,64.1-17.4c0-0.3,0.1-0.3,0.2,0c6.1,33.1,48.7,43.4,66.9,13.6c12.1-19.7,2.1-46.2-20-53
		c-21.8-6.8-44,7.7-46.8,30.7c0,0.3-0.1,0.3-0.1,0c-2.5-17-15.2-31.4-33.3-32c-0.3,0-0.3,0,0-0.1c40.8-4.7,45.6-59.1,6.7-71
		c-1.2-0.4-2.7-0.6-4.4-0.6C198.3,110.6,198.2,110.5,198.2,110.4"/>
	<path vector-effect="non-scaling-stroke" class="st2" d="M41.4,319.9c1.5,20.7,30.8,24.5,37.2,4.6c0-0.1,0-0.3-0.1-0.3
		c0,0,0,0-0.1,0l-6.8,0c-0.2,0-0.4,0.1-0.5,0.3c-4.9,9.3-18.9,8.6-22.1-1.6c-4.5-14.4,14.1-23.6,22.1-10.5c0.1,0.2,0.3,0.3,0.5,0.3
		l6.7-0.1c0.1,0,0.2-0.1,0.2-0.2c0,0,0-0.1,0-0.1C71.1,291.2,39.8,298.4,41.4,319.9"/>
	<path vector-effect="non-scaling-stroke" class="st2" d="M121.4,318.6c0-10.6-8.6-19.1-19.1-19.1c-10.6,0-19.1,8.6-19.1,19.1l0,0
		c0,10.6,8.6,19.1,19.1,19.1l0,0C112.9,337.7,121.4,329.1,121.4,318.6"/>
	<path vector-effect="non-scaling-stroke" class="st2" d="M307,309.7c-0.5,9.4,8,9.3,13,12.4c3.9,2.4,3.4,8.1-1.3,9.2
		c-3.9,0.9-6.9-2.2-7-6.1c0-0.2-0.1-0.3-0.3-0.3l-5.7,0c-0.2,0-0.3,0.1-0.3,0.3c0,0,0,0,0,0c0,4.2,1.5,7.5,4.4,9.9
		c5,4.1,13.6,3,17.3-2.4c1.3-1.9,2-4.3,2-7.1c0-7.4-5.4-9.1-11.6-11.6c-10.8-4.5,3-13.4,4.6-4.4c0,0.2,0.2,0.3,0.4,0.3l5.8,0
		c0.2,0,0.3-0.1,0.3-0.3c0,0,0,0,0,0C328.3,295.7,307.7,296.6,307,309.7"/>
	<path vector-effect="non-scaling-stroke" class="st2" d="M241.3,328.9c-0.2-0.1-0.3-0.4-0.2-0.6c0,0,0-0.1,0.1-0.1l21.4-20.7
		c0.1-0.1,0.1-0.3,0-0.4c0,0,0,0,0,0c-5.5-5.6-12.2-8.5-20.2-6.7c-11.1,2.5-17.5,14.3-13,24.9c5.1,11.9,20.2,15.9,30.5,8.2
		c0.2-0.1,0.3-0.3,0.3-0.5l0-9c0-0.2-0.1-0.2-0.2-0.1C254.7,329.7,249.1,333.3,241.3,328.9"/>
	<path vector-effect="non-scaling-stroke" class="st2" d="M192.4,304.4l-0.1-3.5c0-0.2-0.1-0.3-0.3-0.3l-6.2,0.1
		c-0.2,0-0.3,0.1-0.3,0.3v47.6c0,0.2,0.1,0.3,0.3,0.3h6.1c0.2,0,0.3-0.1,0.3-0.3l0.2-15.5c0-0.2,0.1-0.3,0.3-0.2
		c0.7,0.4,1.3,0.8,1.9,1.3c5.3,4.1,13.2,4.1,18.7,1.6c15.4-7,14.5-29.6-1.6-35c-7-2.3-13.3-1.1-19,3.6
		C192.4,304.6,192.4,304.6,192.4,304.4"/>
	<path vector-effect="non-scaling-stroke" class="st2" d="M364.8,333l0.1,3.3c0,0.2,0.1,0.3,0.3,0.3l6.2,0c0.2,0,0.3-0.1,0.3-0.3
		l0,0v-35.3c0-0.2-0.1-0.3-0.3-0.3l-6.3,0c-0.2,0-0.3,0.1-0.3,0.3l-0.1,3.3c0,0.2-0.1,0.2-0.3,0.1c-5.4-4.2-11.1-5.5-17.1-4.1
		c-12.8,3.1-18.3,17.4-11.5,28.5c4.8,7.9,16.4,11.3,25.1,6.5c1.2-0.6,2.4-1.7,3.6-2.4C364.7,332.7,364.8,332.8,364.8,333"/>
	<path vector-effect="non-scaling-stroke" class="st2" d="M132.6,304.1l-0.1-3.2c0-0.2-0.1-0.3-0.3-0.3l-5.4,0
		c-0.2,0-0.3,0.1-0.3,0.3l0,35.3c0,0.2,0.1,0.3,0.3,0.3h5.8c0.2,0,0.3-0.1,0.3-0.3c0-5.6,0.1-11.2,0.1-16.8
		c0.1-6.8,1.2-15.1,10.4-13c5.3,1.2,5.7,7.5,5.8,12c0.1,5.9,0.1,11.9,0.1,17.9c0,0.2,0.1,0.3,0.3,0.3h6c0.2,0,0.3-0.1,0.3-0.3
		c0-6.5,0-13.1,0-19.6c0-3,0.5-7.1,3.1-9c4.1-3.1,10.1-1.6,12,3.3c0.4,1,0.6,2.9,0.6,5.5c0,6.6,0,13.2,0,19.8c0,0.2,0.1,0.3,0.3,0.3
		c0,0,0,0,0,0h6.3c0.2,0,0.3-0.1,0.3-0.3c0-6.1,0-12.2,0-18.3c0-4.4-0.3-7.6-1-9.4c-3.6-10.1-18-11.5-24.3-2.9
		c-0.1,0.1-0.2,0.1-0.3,0c0,0,0,0,0-0.1c-4.5-6.6-14.7-8-20-1.5C132.7,304.5,132.6,304.5,132.6,304.1"/>
	<path vector-effect="non-scaling-stroke" class="st2" d="M274.8,303.9l-0.1-2.9c0-0.2-0.2-0.3-0.3-0.3l-5.9,0
		c-0.2,0-0.3,0.1-0.3,0.3l0,0v35.2c0,0.2,0.1,0.3,0.3,0.3l6.2,0.1c0.2,0,0.3-0.1,0.3-0.3c0-5.3,0-10.6,0-15.9c0-8,2.1-16,12.4-13.5
		c4.5,1.1,5.9,5.8,5.9,10c0,6.5,0.1,12.9,0,19.4c0,0.2,0.1,0.3,0.3,0.3h6.1c0.2,0,0.3-0.1,0.3-0.3c0-7.2,0-14.5-0.1-21.7
		c-0.1-14-15.5-18.8-25.1-10.5C274.9,304.2,274.8,304.1,274.8,303.9"/>
	<path vector-effect="non-scaling-stroke" class="st2" d="M385.7,304.2l-0.1-3.3c0-0.2-0.1-0.3-0.3-0.3l-5.7,0
		c-0.2,0-0.3,0.1-0.3,0.3v35.3c0,0.2,0.1,0.3,0.3,0.3h6.3c0.2,0,0.3-0.1,0.3-0.3c0-6.9,0-13.9,0.1-20.8c0.1-5.3,2.7-8.1,7.8-8.4
		c0.2,0,0.3-0.2,0.3-0.3l0-6c0-0.3-0.3-0.6-0.6-0.6c0,0-0.1,0-0.1,0c-3.3,0.4-5.9,1.8-7.8,4.2C385.8,304.4,385.7,304.4,385.7,304.2"
		/>
	<path vector-effect="non-scaling-stroke" class="st2" d="M101.9,331.1c6.7,0.2,12.4-5.2,12.6-12.1c0.2-6.9-5.1-12.7-11.8-12.9l0,0
		c-6.7-0.2-12.4,5.2-12.6,12.1C89.9,325.1,95.2,330.9,101.9,331.1L101.9,331.1"/>
	<path vector-effect="non-scaling-stroke" class="st2" d="M253,308c-10.9-5.6-21.7,3.7-16.9,15.3c0.1,0.3,0.5,0.5,0.8,0.3
		c0.1,0,0.1-0.1,0.2-0.1l15.9-15.3C253.1,308.2,253.1,308.1,253,308C253,308.1,253,308,253,308"/>
	<path vector-effect="non-scaling-stroke" class="st2" d="M217.1,318.7c0-6.9-5.6-12.5-12.5-12.5l0,0c-6.9,0-12.5,5.6-12.5,12.5
		c0,0,0,0,0,0c0,6.9,5.6,12.5,12.5,12.5l0,0C211.5,331.1,217.1,325.5,217.1,318.7C217.1,318.7,217.1,318.7,217.1,318.7"/>
	<path vector-effect="non-scaling-stroke" class="st2" d="M365.1,318.6c0-6.9-5.6-12.5-12.5-12.5c-6.9,0-12.5,5.6-12.5,12.5
		s5.6,12.5,12.5,12.5C359.5,331.1,365.1,325.5,365.1,318.6"/>
</g>
<path class="st3" d="M198.5,110.6c1.7,0,3.2,0.2,4.4,0.6c38.9,11.9,34.1,66.3-6.7,71c-0.3,0-0.3,0.1,0,0.1c18.1,0.6,30.8,15,33.3,32
	c0,0.3,0.1,0.3,0.1,0c2.8-23,25-37.5,46.8-30.7c22.2,6.9,32.1,33.3,20,53c-18.2,29.8-60.8,19.5-66.9-13.6c-0.1-0.3-0.1-0.3-0.2,0
	c-5.1,31-44.5,42.9-64.1,17.4c-17.2-22.3-4.1-54.1,23.4-58.1c0.8-0.1,0.8-0.2,0-0.4c-14.8-2.6-26.5-12.3-30-27
	c-0.3-1.3-0.7-2.7-1.1-4c-0.1-0.3-0.2-0.3-0.2,0c-5.7,35.1-52.9,43.5-68.3,10.7c-7.1-14.9-3.1-33,9.8-43.4
	c22.4-18,55.3-4.6,58.6,23.8c0,0.3,0.1,0.3,0.1,0c3.2-17.7,13.6-28.3,31.1-31.9c0.3-0.1,0.3-0.1,0-0.2
	c-18.7-3.3-32.6-19.1-31.1-38.3c3.4-43.6,67.3-45,71.9-0.9c0,0.3,0.1,0.3,0.1,0c3.5-24.6,27.6-40.1,50.8-29.6
	c20.8,9.4,27.9,35.8,14.3,54.2c-19.7,26.8-59.5,15.4-65.1-16.3c-0.1-0.3-0.1-0.3-0.2,0c-3.4,17.2-13.7,27.5-31,30.9
	c-0.3,0.1-0.4-0.1-0.3,0.4C198.2,110.5,198.3,110.6,198.5,110.6z"/>
<path class="st4" d="M78.6,324.5c-6.4,19.9-35.7,16-37.2-4.6c-1.6-21.5,29.7-28.7,37.2-7.6c0,0.1,0,0.3-0.1,0.3c0,0,0,0-0.1,0
	l-6.7,0.1c-0.2,0-0.4-0.1-0.5-0.3c-8-13.1-26.6-3.9-22.1,10.5c3.2,10.2,17.2,10.9,22.1,1.6c0.1-0.2,0.3-0.3,0.5-0.3l6.8,0
	C78.5,324.2,78.6,324.4,78.6,324.5C78.6,324.5,78.6,324.5,78.6,324.5z"/>
<path class="st4" d="M121.4,318.6c0,10.6-8.6,19.1-19.1,19.1c-10.6,0-19.1-8.6-19.1-19.1l0,0c0-10.6,8.6-19.1,19.1-19.1l0,0
	C112.9,299.5,121.4,308,121.4,318.6z M101.9,331.1c6.7,0.2,12.4-5.2,12.6-12.1c0.2-6.9-5.1-12.7-11.8-12.9l0,0
	c-6.7-0.2-12.4,5.2-12.6,12.1C89.9,325.1,95.2,330.9,101.9,331.1L101.9,331.1z"/>
<path class="st4" d="M320.1,322.1c-5-3.1-13.5-2.9-13-12.4c0.7-13.1,21.2-14,21.6-0.1c0,0.2-0.1,0.3-0.3,0.3c0,0,0,0,0,0l-5.8,0
	c-0.2,0-0.3-0.1-0.4-0.3c-1.6-9.1-15.4-0.1-4.6,4.4c6.2,2.6,11.6,4.3,11.6,11.6c0,2.8-0.7,5.2-2,7.1c-3.7,5.4-12.2,6.5-17.3,2.4
	c-2.9-2.4-4.4-5.7-4.4-9.9c0-0.2,0.1-0.3,0.3-0.3c0,0,0,0,0,0l5.7,0c0.2,0,0.3,0.1,0.3,0.3c0.2,3.9,3.1,7,7,6.1
	C323.5,330.2,324,324.5,320.1,322.1z"/>
<path class="st4" d="M241.3,328.9c7.7,4.5,13.4,0.9,18.6-5.1c0.1-0.2,0.2-0.1,0.2,0.1l0,9c0,0.2-0.1,0.4-0.3,0.5
	c-10.3,7.7-25.4,3.8-30.5-8.2c-4.5-10.5,1.9-22.4,13-24.9c8-1.8,14.7,1.1,20.2,6.7c0.1,0.1,0.1,0.3,0,0.4c0,0,0,0,0,0l-21.4,20.7
	C241,328.3,241,328.6,241.3,328.9C241.2,328.8,241.3,328.9,241.3,328.9z M253,308c-10.9-5.6-21.7,3.7-16.9,15.3
	c0.1,0.3,0.5,0.5,0.8,0.3c0.1,0,0.1-0.1,0.2-0.1l15.9-15.3C253.1,308.2,253.1,308.1,253,308C253,308.1,253,308,253,308z"/>
<path class="st4" d="M192.6,304.5c5.7-4.7,12-5.9,19-3.6c16.1,5.3,17,27.9,1.6,35c-5.5,2.5-13.4,2.4-18.7-1.6
	c-0.6-0.5-1.2-0.9-1.9-1.3c-0.2-0.1-0.3-0.1-0.3,0.2l-0.2,15.5c0,0.2-0.1,0.3-0.3,0.3h-6.1c-0.2,0-0.3-0.2-0.3-0.3V301
	c0-0.2,0.1-0.3,0.3-0.3l6.2-0.1c0.2,0,0.3,0.1,0.3,0.3l0.1,3.5C192.4,304.6,192.4,304.6,192.6,304.5z M217.1,318.7
	c0-6.9-5.6-12.5-12.5-12.5l0,0c-6.9,0-12.5,5.6-12.5,12.5c0,0,0,0,0,0c0,6.9,5.6,12.5,12.5,12.5l0,0
	C211.5,331.1,217.1,325.5,217.1,318.7C217.1,318.7,217.1,318.7,217.1,318.7z"/>
<path class="st4" d="M364.6,332.8c-1.2,0.8-2.4,1.8-3.6,2.4c-8.7,4.8-20.3,1.3-25.1-6.5c-6.8-11.1-1.3-25.4,11.5-28.5
	c6.1-1.5,11.8-0.1,17.1,4.1c0.2,0.1,0.3,0.1,0.3-0.1l0.1-3.3c0-0.2,0.1-0.3,0.3-0.3l6.3,0c0.2,0,0.3,0.1,0.3,0.3v35.3
	c0,0.2-0.1,0.3-0.3,0.3l0,0l-6.2,0c-0.2,0-0.3-0.1-0.3-0.3l-0.1-3.3C364.8,332.8,364.7,332.7,364.6,332.8z M365.1,318.6
	c0-6.9-5.6-12.5-12.5-12.5c-6.9,0-12.5,5.6-12.5,12.5s5.6,12.5,12.5,12.5C359.5,331.1,365.1,325.5,365.1,318.6z"/>
<path class="st4" d="M132.6,304.1c0,0.3,0.1,0.4,0.3,0.1c5.3-6.5,15.5-5.1,20,1.5c0.1,0.1,0.2,0.1,0.3,0.1c0,0,0,0,0.1,0
	c6.3-8.6,20.7-7.2,24.3,2.9c0.6,1.8,1,4.9,1,9.4c0,6.1,0,12.2,0,18.3c0,0.2-0.1,0.3-0.3,0.3h-6.3c-0.2,0-0.3-0.1-0.3-0.3
	c0,0,0,0,0,0c0-6.6,0-13.2,0-19.8c0-2.6-0.2-4.4-0.6-5.5c-1.9-4.9-8-6.5-12-3.3c-2.5,2-3.1,6-3.1,9c0,6.5,0,13.1,0,19.6
	c0,0.2-0.1,0.3-0.3,0.3h-6c-0.2,0-0.3-0.1-0.3-0.3c0-6,0-11.9-0.1-17.9c0-4.4-0.5-10.8-5.8-12c-9.2-2.1-10.4,6.2-10.4,13
	c-0.1,5.6-0.1,11.2-0.1,16.8c0,0.2-0.1,0.3-0.3,0.3h-5.8c-0.2,0-0.3-0.1-0.3-0.3l0-35.3c0-0.2,0.1-0.3,0.3-0.3l5.4,0
	c0.2,0,0.3,0.1,0.3,0.3L132.6,304.1z"/>
<path class="st4" d="M275,304c9.6-8.3,24.9-3.5,25.1,10.5c0.1,7.2,0.1,14.5,0.1,21.7c0,0.2-0.1,0.3-0.3,0.3h-6.1
	c-0.2,0-0.3-0.1-0.3-0.3c0-6.5,0-12.9,0-19.4c0-4.2-1.4-8.9-5.9-10c-10.3-2.5-12.4,5.5-12.4,13.5c0,5.3,0,10.6,0,15.9
	c0,0.2-0.1,0.3-0.3,0.3l-6.2-0.1c-0.2,0-0.3-0.2-0.3-0.3V301c0-0.2,0.1-0.3,0.3-0.3l0,0l5.9,0c0.2,0,0.3,0.1,0.3,0.3l0.1,2.9
	C274.8,304.1,274.9,304.2,275,304z"/>
<path class="st4" d="M385.9,304.3c1.8-2.4,4.4-3.8,7.8-4.2c0.3,0,0.7,0.2,0.7,0.5c0,0,0,0.1,0,0.1l0,6c0,0.2-0.1,0.3-0.3,0.3
	c-5.1,0.3-7.8,3.1-7.8,8.4c-0.1,6.9-0.1,13.9-0.1,20.8c0,0.2-0.1,0.3-0.3,0.3h-6.3c-0.2,0-0.3-0.1-0.3-0.3v-35.3
	c0-0.2,0.1-0.3,0.3-0.3l5.7,0c0.2,0,0.3,0.1,0.3,0.3l0.1,3.3C385.7,304.4,385.8,304.4,385.9,304.3z"/>
</svg>
