<?xml version="1.0" encoding="utf-8"?>
<!-- Generator: Adobe Illustrator 24.1.0, SVG Export Plug-In . SVG Version: 6.00 Build 0)  -->
<svg version="1.1" fill="#ff6719" id="Capa_1" xmlns="http://www.w3.org/2000/svg" xmlns:xlink="http://www.w3.org/1999/xlink" x="0px" y="0px"
	 viewBox="0 0 384 512" style="enable-background:new 0 0 384 512;" xml:space="preserve">
<path d="M168.8,256.1c0,0.1,0,0.2,0,0.3c0,0.6-0.5,1-1,1l-39-0.1c0,0-0.1,0-0.1,0c-0.2-0.1-0.4-0.3-0.3-0.5
	c7.1-21.5,13.7-43,19.7-64.8c0.3-0.9,0.5-0.9,0.8,0L168.8,256.1z"/>
<path d="M192.4,62.2C87.2,62.2,2,147.5,2,252.7c0,105.2,85.3,190.4,190.5,190.4s190.5-85.3,190.5-190.4
	C382.9,147.5,297.6,62.2,192.4,62.2z M232.8,333c-0.1,0-0.3,0.1-0.4,0.1l-38.1,0.1c-0.5,0-0.9-0.3-1.1-0.8l-13.7-39.5
	c-0.1-0.4-0.5-0.7-0.8-0.7c-2.9-0.6-6.2,0-8.3,0c-16.7-0.2-33.7-0.3-51-0.5c-0.8,0-1.4,0.5-1.7,1.2L105.1,332
	c-0.2,0.6-0.8,1.1-1.5,1.1l-33.1,0c-2.3,0-3-1.1-2.3-3.2c16.3-47.1,32.7-94.2,49.1-141.3c4.6-13.1,7.1-19.7,7.7-30.7
	c0-0.7,0.6-1.3,1.3-1.3l42.3,0c0.5,0,1.1,0.1,1.7,0.4l0.9,0.4c0.4,0.2,0.7,0.5,0.8,0.8l61.5,173.2
	C233.8,332.1,233.5,332.7,232.8,333z M288.2,331.9c0,0.7-0.6,1.3-1.3,1.3h-36.1c-0.7,0-1.3-0.6-1.3-1.3V201.2c0-0.7,0.6-1.3,1.3-1.3
	h36.1c0.7,0,1.3,0.6,1.3,1.3V331.9z M272.3,186.1l-3.9,0.2c-10.6,0.6-19.6-7.4-20.3-18l-0.2-3.9c-0.6-10.6,7.4-19.6,18-20.3l3.8-0.2
	c10.6-0.6,19.6,7.4,20.3,18l0.2,3.9C290.9,176.4,282.8,185.5,272.3,186.1z"/>
</svg>
