<?xml version="1.0" encoding="utf-8"?>
<!-- Generator: Adobe Illustrator 24.1.0, SVG Export Plug-In . SVG Version: 6.00 Build 0)  -->
<svg version="1.1" fill="#ff6719" id="Capa_1" xmlns="http://www.w3.org/2000/svg" xmlns:xlink="http://www.w3.org/1999/xlink" x="0px" y="0px"
	 viewBox="0 0 384 512" style="enable-background:new 0 0 384 512;" xml:space="preserve">
<path d="M192,62C86.5,62,1,147.5,1,253s85.5,191,191,191s191-85.5,191-191S297.5,62,192,62z M214.3,330.6
	c0,28.3-16.6,41.3-40.9,41.3c-21.9,0-34.6-11.3-41.1-25l22.3-13.5c4.3,7.6,8.2,14,17.6,14c9,0,14.7-3.5,14.7-17.2v-93h27.4V330.6z
	 M279.1,371.9c-25.4,0-41.9-12.1-49.9-28l22.3-12.9c5.8,9.5,13.5,16.6,27,16.6c11.3,0,18.6-5.7,18.6-13.5c0-9.4-7.4-12.7-20-18.2
	l-6.8-2.9c-19.8-8.4-32.8-19-32.8-41.3c0-20.5,15.7-36.2,40-36.2c17.4,0,29.9,6,38.9,21.9L295,271.2c-4.7-8.4-9.8-11.7-17.6-11.7
	c-8,0-13.1,5.1-13.1,11.7c0,8.2,5.1,11.5,16.8,16.6l6.8,2.9c23.3,10,36.3,20.2,36.3,43C324.4,358.3,305,371.9,279.1,371.9z"/>
</svg>
