<?xml version="1.0" encoding="UTF-8" standalone="no"?>
<!DOCTYPE svg PUBLIC "-//W3C//DTD SVG 1.1//EN" "http://www.w3.org/Graphics/SVG/1.1/DTD/svg11.dtd">
<svg xmlns="http://www.w3.org/2000/svg" version="1.1" viewBox="0 0 616 123">
<g stroke-width="2.00" fill="none" stroke-linecap="butt">
<path stroke="#80b326" vector-effect="non-scaling-stroke" d="
  M 259.75 0.46
  Q 265.25 1.80 268.98 3.78
  C 283.08 11.26 284.89 36.23 268.04 41.80
  Q 267.54 41.96 267.56 42.32
  A 0.83 0.53 7.2 0 0 268.23 42.88
  Q 281.03 45.54 283.34 58.39
  C 286.79 77.59 273.28 86.91 256.25 88.21"
/>
<path stroke="#80b326" vector-effect="non-scaling-stroke" d="
  M 247.42 21.25
  Q 244.66 20.59 241.69 21.14
  A 0.61 0.60 -5.2 0 0 241.19 21.73
  L 241.33 32.86
  A 0.55 0.55 2.2 0 0 241.84 33.41
  C 245.27 33.67 249.07 33.71 251.37 30.86
  C 254.62 26.86 252.09 22.37 247.42 21.25"
/>
<path stroke="#80b326" vector-effect="non-scaling-stroke" d="
  M 241.56 52.37
  A 0.67 0.66 -3.8 0 0 240.97 53.04
  L 241.24 65.74
  A 0.60 0.60 -86.0 0 0 241.74 66.32
  Q 246.26 67.04 250.49 65.69
  C 257.45 63.49 257.16 54.32 250.32 52.68
  Q 246.44 51.75 241.56 52.37"
/>
<path stroke="#80b326" vector-effect="non-scaling-stroke" d="
  M 286.93 0.00
  Q 286.42 44.10 287.00 88.21"
/>
<path stroke="#80b326" vector-effect="non-scaling-stroke" d="
  M 332.25 0.46
  C 344.24 2.75 353.80 7.95 356.98 20.75
  C 360.13 33.39 356.95 48.83 342.68 52.00
  A 0.62 0.61 67.6 0 0 342.30 52.93
  C 344.60 56.60 364.26 86.91 364.00 88.21"
/>
<path stroke="#80b326" vector-effect="non-scaling-stroke" d="
  M 331.10 88.30
  L 316.77 59.82
  A 0.59 0.38 62.1 0 0 316.15 59.47
  Q 315.93 59.59 315.93 60.00
  Q 316.07 78.96 315.75 88.21"
/>
<path stroke="#80b326" vector-effect="non-scaling-stroke" d="
  M 316.16 23.43
  L 316.10 39.35
  A 0.56 0.54 3.4 0 0 316.61 39.90
  C 323.05 40.50 329.69 39.69 329.75 31.52
  C 329.81 23.71 323.10 21.34 316.67 22.82
  A 0.65 0.63 -5.8 0 0 316.16 23.43"
/>
<path stroke="#80b326" vector-effect="non-scaling-stroke" d="
  M 395.31 0.00
  L 365.50 88.21"
/>
<path stroke="#80b326" vector-effect="non-scaling-stroke" d="
  M 428.18 -0.04
  L 457.25 87.71"
/>
<path stroke="#ffcf00" vector-effect="non-scaling-stroke" d="
  M 457.25 87.71
  L 457.00 88.21"
/>
<path stroke="#80b326" vector-effect="non-scaling-stroke" d="
  M 425.75 88.21
  L 422.96 77.57
  A 0.67 0.62 82.2 0 0 422.35 77.07
  L 400.48 77.01
  A 0.67 0.62 -82.2 0 0 399.87 77.51
  L 397.00 88.21"
/>
<path stroke="#80b326" vector-effect="non-scaling-stroke" d="
  M 411.23 27.45
  Q 408.90 41.56 405.14 55.23
  A 0.44 0.43 -79.0 0 0 405.50 55.78
  Q 411.30 56.37 417.27 55.76
  A 0.42 0.41 -11.6 0 0 417.63 55.23
  Q 413.46 41.19 411.64 27.46
  Q 411.46 26.07 411.23 27.45"
/>
<path stroke="#80a326" vector-effect="non-scaling-stroke" d="
  M 458.25 0.29
  Q 457.53 18.65 458.39 37.10"
/>
<path stroke="#00767f" vector-effect="non-scaling-stroke" d="
  M 458.39 37.10
  L 458.50 51.71"
/>
<path stroke="#80a326" vector-effect="non-scaling-stroke" d="
  M 458.50 51.71
  C 457.40 52.91 457.97 79.94 457.85 87.26
  A 0.54 0.35 85.6 0 1 457.59 87.73
  Q 457.42 87.79 457.25 87.71"
/>
<path stroke="#80925a" vector-effect="non-scaling-stroke" d="
  M 495.50 0.54
  Q 464.69 6.26 458.39 37.10"
/>
<path stroke="#80925a" vector-effect="non-scaling-stroke" d="
  M 510.25 0.54
  L 522.00 4.12
  A 0.74 0.68 -82.0 0 1 522.48 4.81
  L 522.49 34.68
  Q 522.49 35.65 521.80 34.96
  C 510.94 23.90 488.05 24.64 488.84 44.76
  C 489.43 59.86 503.05 63.77 514.95 57.92
  Q 516.97 56.93 522.76 53.28
  Q 523.19 53.01 523.17 53.51
  L 522.25 83.77
  A 0.73 0.67 83.4 0 1 521.77 84.43
  L 508.73 88.35"
/>
<path stroke="#80925a" vector-effect="non-scaling-stroke" d="
  M 499.06 88.40
  Q 465.55 84.37 458.50 51.71"
/>
<path stroke="#ec6007" vector-effect="non-scaling-stroke" d="
  M 564.56 0.50
  Q 549.91 2.93 539.65 12.34
  C 524.60 26.15 521.70 49.29 531.86 66.78
  Q 542.11 84.42 564.07 88.28"
/>
<path stroke="#ec6007" vector-effect="non-scaling-stroke" d="
  M 577.14 0.51
  Q 592.83 3.28 603.01 13.24
  Q 612.58 22.60 615.50 37.31"
/>
<path stroke="#ec6007" vector-effect="non-scaling-stroke" d="
  M 615.50 51.21
  Q 608.72 82.17 577.44 88.30"
/>
<path stroke="#ec6007" vector-effect="non-scaling-stroke" d="
  M 570.7200 60.4300
  A 16.02 14.27 90.0 0 0 584.9900 44.4100
  A 16.02 14.27 90.0 0 0 570.7200 28.3900
  A 16.02 14.27 90.0 0 0 556.4500 44.4100
  A 16.02 14.27 90.0 0 0 570.7200 60.4300"
/>
</g>
<path fill="#ffde00" d="
  M 212.98 0.00
  L 255.81 0.00
  L 259.75 0.46
  Q 265.25 1.80 268.98 3.78
  C 283.08 11.26 284.89 36.23 268.04 41.80
  Q 267.54 41.96 267.56 42.32
  A 0.83 0.53 7.2 0 0 268.23 42.88
  Q 281.03 45.54 283.34 58.39
  C 286.79 77.59 273.28 86.91 256.25 88.21
  L 213.06 88.23
  A 0.31 0.30 0.0 0 1 212.75 87.93
  L 212.98 0.00
  Z
  M 247.42 21.25
  Q 244.66 20.59 241.69 21.14
  A 0.61 0.60 -5.2 0 0 241.19 21.73
  L 241.33 32.86
  A 0.55 0.55 2.2 0 0 241.84 33.41
  C 245.27 33.67 249.07 33.71 251.37 30.86
  C 254.62 26.86 252.09 22.37 247.42 21.25
  Z
  M 241.56 52.37
  A 0.67 0.66 -3.8 0 0 240.97 53.04
  L 241.24 65.74
  A 0.60 0.60 -86.0 0 0 241.74 66.32
  Q 246.26 67.04 250.49 65.69
  C 257.45 63.49 257.16 54.32 250.32 52.68
  Q 246.44 51.75 241.56 52.37
  Z"
/>
<path fill="#00874b" d="
  M 261.31 0.00
  L 286.93 0.00
  Q 286.42 44.10 287.00 88.21
  L 256.25 88.21
  C 273.28 86.91 286.79 77.59 283.34 58.39
  Q 281.03 45.54 268.23 42.88
  A 0.83 0.53 7.2 0 1 267.56 42.32
  Q 267.54 41.96 268.04 41.80
  C 284.89 36.23 283.08 11.26 268.98 3.78
  Q 265.25 1.80 259.75 0.46
  L 261.31 0.00
  Z"
/>
<path fill="#ffde00" d="
  M 286.93 0.00
  L 325.31 0.00
  L 332.25 0.46
  C 344.24 2.75 353.80 7.95 356.98 20.75
  C 360.13 33.39 356.95 48.83 342.68 52.00
  A 0.62 0.61 67.6 0 0 342.30 52.93
  C 344.60 56.60 364.26 86.91 364.00 88.21
  L 331.10 88.30
  L 316.77 59.82
  A 0.59 0.38 62.1 0 0 316.15 59.47
  Q 315.93 59.59 315.93 60.00
  Q 316.07 78.96 315.75 88.21
  L 287.00 88.21
  Q 286.42 44.10 286.93 0.00
  Z
  M 316.16 23.43
  L 316.10 39.35
  A 0.56 0.54 3.4 0 0 316.61 39.90
  C 323.05 40.50 329.69 39.69 329.75 31.52
  C 329.81 23.71 323.10 21.34 316.67 22.82
  A 0.65 0.63 -5.8 0 0 316.16 23.43
  Z"
/>
<path fill="#00874b" d="
  M 334.56 0.00
  L 395.31 0.00
  L 365.50 88.21
  L 364.00 88.21
  C 364.26 86.91 344.60 56.60 342.30 52.93
  A 0.62 0.61 67.6 0 1 342.68 52.00
  C 356.95 48.83 360.13 33.39 356.98 20.75
  C 353.80 7.95 344.24 2.75 332.25 0.46
  L 334.56 0.00
  Z"
/>
<path fill="#ffde00" d="
  M 395.31 0.00
  L 428.18 -0.04
  L 457.25 87.71
  L 457.00 88.21
  L 425.75 88.21
  L 422.96 77.57
  A 0.67 0.62 82.2 0 0 422.35 77.07
  L 400.48 77.01
  A 0.67 0.62 -82.2 0 0 399.87 77.51
  L 397.00 88.21
  L 365.50 88.21
  L 395.31 0.00
  Z
  M 411.23 27.45
  Q 408.90 41.56 405.14 55.23
  A 0.44 0.43 -79.0 0 0 405.50 55.78
  Q 411.30 56.37 417.27 55.76
  A 0.42 0.41 -11.6 0 0 417.63 55.23
  Q 413.46 41.19 411.64 27.46
  Q 411.46 26.07 411.23 27.45
  Z"
/>
<path fill="#00874b" d="
  M 428.18 -0.04
  L 458.06 0.00
  L 458.25 0.29
  Q 457.53 18.65 458.39 37.10
  L 458.50 51.71
  C 457.40 52.91 457.97 79.94 457.85 87.26
  A 0.54 0.35 85.6 0 1 457.59 87.73
  Q 457.42 87.79 457.25 87.71
  L 428.18 -0.04
  Z"
/>
<rect fill="#1e1f1d" x="175.01" y="0.25" width="28.74" height="19.50" rx="0.57"/>
<path fill="#ffbf00" d="
  M 458.25 0.29
  L 495.50 0.54
  Q 464.69 6.26 458.39 37.10
  Q 457.53 18.65 458.25 0.29
  Z"
/>
<path fill="#0064b3" d="
  M 510.25 0.54
  L 522.00 4.12
  A 0.74 0.68 -82.0 0 1 522.48 4.81
  L 522.49 34.68
  Q 522.49 35.65 521.80 34.96
  C 510.94 23.90 488.05 24.64 488.84 44.76
  C 489.43 59.86 503.05 63.77 514.95 57.92
  Q 516.97 56.93 522.76 53.28
  Q 523.19 53.01 523.17 53.51
  L 522.25 83.77
  A 0.73 0.67 83.4 0 1 521.77 84.43
  L 508.73 88.35
  L 499.06 88.40
  Q 465.55 84.37 458.50 51.71
  L 458.39 37.10
  Q 464.69 6.26 495.50 0.54
  L 510.25 0.54
  Z"
/>
<path fill="#ffbf00" d="
  M 513.50 0.21
  L 564.56 0.50
  Q 549.91 2.93 539.65 12.34
  C 524.60 26.15 521.70 49.29 531.86 66.78
  Q 542.11 84.42 564.07 88.28
  L 508.73 88.35
  L 521.77 84.43
  A 0.73 0.67 83.4 0 0 522.25 83.77
  L 523.17 53.51
  Q 523.19 53.01 522.76 53.28
  Q 516.97 56.93 514.95 57.92
  C 503.05 63.77 489.43 59.86 488.84 44.76
  C 488.05 24.64 510.94 23.90 521.80 34.96
  Q 522.49 35.65 522.49 34.68
  L 522.48 4.81
  A 0.74 0.68 -82.0 0 0 522.00 4.12
  L 510.25 0.54
  L 513.50 0.21
  Z"
/>
<path fill="#d9000d" d="
  M 564.56 0.50
  L 577.14 0.51
  Q 592.83 3.28 603.01 13.24
  Q 612.58 22.60 615.50 37.31
  L 615.50 51.21
  Q 608.72 82.17 577.44 88.30
  Q 570.75 88.81 564.07 88.28
  Q 542.11 84.42 531.86 66.78
  C 521.70 49.29 524.60 26.15 539.65 12.34
  Q 549.91 2.93 564.56 0.50
  Z
  M 570.7200 60.4300
  A 16.02 14.27 90.0 0 0 584.9900 44.4100
  A 16.02 14.27 90.0 0 0 570.7200 28.3900
  A 16.02 14.27 90.0 0 0 556.4500 44.4100
  A 16.02 14.27 90.0 0 0 570.7200 60.4300
  Z"
/>
<path fill="#ffbf00" d="
  M 577.14 0.51
  L 615.25 0.21
  L 615.47 0.26
  A 0.28 0.28 6.6 0 1 615.69 0.53
  L 615.50 37.31
  Q 612.58 22.60 603.01 13.24
  Q 592.83 3.28 577.14 0.51
  Z"
/>
<path fill="#00874b" d="
  M 247.42 21.25
  C 252.09 22.37 254.62 26.86 251.37 30.86
  C 249.07 33.71 245.27 33.67 241.84 33.41
  A 0.55 0.55 2.2 0 1 241.33 32.86
  L 241.19 21.73
  A 0.61 0.60 -5.2 0 1 241.69 21.14
  Q 244.66 20.59 247.42 21.25
  Z"
/>
<path fill="#00874b" d="
  M 316.67 22.82
  C 323.10 21.34 329.81 23.71 329.75 31.52
  C 329.69 39.69 323.05 40.50 316.61 39.90
  A 0.56 0.54 3.4 0 1 316.10 39.35
  L 316.16 23.43
  A 0.65 0.63 -5.8 0 1 316.67 22.82
  Z"
/>
<rect fill="#1e1f1d" x="175.01" y="26.25" width="28.74" height="62.00" rx="0.71"/>
<path fill="#00874b" d="
  M 411.23 27.45
  Q 411.46 26.07 411.64 27.46
  Q 413.46 41.19 417.63 55.23
  A 0.42 0.41 -11.6 0 1 417.27 55.76
  Q 411.30 56.37 405.50 55.78
  A 0.44 0.43 -79.0 0 1 405.14 55.23
  Q 408.90 41.56 411.23 27.45
  Z"
/>
<ellipse fill="#ffbf00" cx="0.00" cy="0.00" transform="translate(570.72,44.41) rotate(90.0)" rx="16.02" ry="14.27"/>
<path fill="#ffbf00" d="
  M 615.50 51.21
  L 615.79 53.75
  L 615.76 87.98
  A 0.51 0.49 -90.0 0 1 615.27 88.49
  L 577.44 88.30
  Q 608.72 82.17 615.50 51.21
  Z"
/>
<path fill="#ffbf00" d="
  M 458.50 51.71
  Q 465.55 84.37 499.06 88.40
  L 457.00 88.21
  L 457.25 87.71
  Q 457.42 87.79 457.59 87.73
  A 0.54 0.35 85.6 0 0 457.85 87.26
  C 457.97 79.94 457.40 52.91 458.50 51.71
  Z"
/>
<path fill="#00874b" d="
  M 241.56 52.37
  Q 246.44 51.75 250.32 52.68
  C 257.16 54.32 257.45 63.49 250.49 65.69
  Q 246.26 67.04 241.74 66.32
  A 0.60 0.60 -86.0 0 1 241.24 65.74
  L 240.97 53.04
  A 0.67 0.66 -3.8 0 1 241.56 52.37
  Z"
/>
<path fill="#00874b" d="
  M 331.10 88.30
  L 315.75 88.21
  Q 316.07 78.96 315.93 60.00
  Q 315.93 59.59 316.15 59.47
  A 0.59 0.38 62.1 0 1 316.77 59.82
  L 331.10 88.30
  Z"
/>
<path fill="#00874b" d="
  M 425.75 88.21
  L 397.00 88.21
  L 399.87 77.51
  A 0.67 0.62 -82.2 0 1 400.48 77.01
  L 422.35 77.07
  A 0.67 0.62 82.2 0 1 422.96 77.57
  L 425.75 88.21
  Z"
/>
<path fill="#fcfdfd" fill-opacity="0.996" d="
  M 30.49 107.24
  C 33.99 109.45 38.36 111.13 37.99 116.12
  C 37.51 122.65 30.11 123.51 26.00 118.88
  A 1.37 1.11 30.0 0 1 25.66 118.00
  Q 25.71 116.76 26.84 117.01
  A 1.32 0.92 74.5 0 1 27.56 117.61
  C 30.46 122.66 37.78 119.27 35.70 113.99
  C 34.38 110.64 30.29 110.30 27.98 107.78
  C 22.75 102.10 31.07 95.49 36.46 100.83
  A 0.76 0.67 36.6 0 1 36.64 101.66
  Q 36.34 102.31 35.73 102.36
  A 1.35 0.67 51.3 0 1 34.87 101.96
  C 30.54 98.01 25.52 104.11 30.49 107.24
  Z"
/>
<path fill="#fcfdfd" fill-opacity="0.996" d="
  M 20.70 115.47
  L 20.75 100.06
  A 0.86 0.71 80.3 0 1 21.18 99.31
  Q 21.86 99.01 22.37 99.38
  A 1.16 0.80 -78.0 0 1 22.73 100.24
  L 22.63 121.26
  Q 22.62 121.79 22.29 121.39
  L 7.53 104.11
  Q 7.21 103.73 7.18 104.22
  Q 6.81 111.93 7.06 119.59
  C 7.08 120.41 6.74 122.18 5.57 121.12
  A 1.28 0.92 -75.0 0 1 5.24 120.25
  L 5.25 99.17
  Q 5.26 98.44 5.73 99.00
  L 19.90 115.76
  Q 20.69 116.70 20.70 115.47
  Z"
/>
<path fill="#ffffff" d="
  M 131.22 110.36
  A 11.60 11.60 0.0 0 1 119.62 121.96
  A 11.60 11.60 0.0 0 1 108.02 110.36
  A 11.60 11.60 0.0 0 1 119.62 98.76
  A 11.60 11.60 0.0 0 1 131.22 110.36
  Z
  M 129.24 110.38
  A 9.63 9.63 0.0 0 0 119.61 100.75
  A 9.63 9.63 0.0 0 0 109.98 110.38
  A 9.63 9.63 0.0 0 0 119.61 120.01
  A 9.63 9.63 0.0 0 0 129.24 110.38
  Z"
/>
<path fill="#ffffff" d="
  M 186.55 114.69
  Q 189.15 114.75 191.41 113.23
  Q 191.80 112.96 191.80 113.44
  L 191.75 120.35
  A 1.00 0.99 82.7 0 1 191.03 121.30
  C 169.65 127.18 171.44 93.13 190.93 99.71
  A 0.83 0.68 10.9 0 1 191.49 100.38
  L 191.64 107.27
  A 0.35 0.33 13.9 0 1 191.13 107.55
  C 186.79 105.32 182.56 106.03 183.38 111.86
  Q 183.77 114.62 186.55 114.69
  Z"
/>
<path fill="#ffffff" d="
  M 402.71 106.05
  C 402.60 107.62 413.64 108.02 411.06 115.79
  C 408.56 123.28 400.24 123.13 394.41 119.93
  A 0.60 0.57 24.7 0 1 394.12 119.21
  L 396.09 113.94
  A 0.55 0.52 32.1 0 1 396.95 113.77
  C 397.92 114.64 403.46 117.44 403.19 114.39
  A 0.83 0.72 8.2 0 0 402.63 113.74
  C 398.75 112.47 393.81 110.97 395.04 105.73
  C 396.81 98.25 404.42 97.78 410.29 100.63
  A 0.62 0.53 23.9 0 1 410.63 101.34
  L 408.76 106.22
  A 0.42 0.37 31.0 0 1 408.13 106.33
  Q 405.86 104.53 403.29 105.38
  A 0.86 0.74 -8.7 0 0 402.71 106.05
  Z"
/>
<path fill="#ffffff" d="
  M 454.00 100.43
  Q 458.09 97.94 463.65 99.69
  A 1.22 1.19 9.0 0 1 464.50 100.83
  L 464.45 107.23
  A 0.32 0.32 14.1 0 1 463.98 107.51
  L 461.92 106.38
  A 1.79 1.27 49.2 0 0 460.99 106.15
  Q 454.53 106.64 456.71 112.92
  A 1.61 1.57 -82.7 0 0 457.29 113.69
  Q 460.77 116.12 463.61 113.48
  Q 464.86 112.32 464.78 114.01
  L 464.47 120.46
  A 0.80 0.79 -9.5 0 1 463.97 121.15
  C 450.38 126.37 442.11 107.68 454.00 100.43
  Z"
/>
<path fill="#ffffff" d="
  M 489.72 110.50
  A 11.42 11.42 0.0 0 1 478.30 121.92
  A 11.42 11.42 0.0 0 1 466.88 110.50
  A 11.42 11.42 0.0 0 1 478.30 99.08
  A 11.42 11.42 0.0 0 1 489.72 110.50
  Z
  M 478.3287 114.6299
  A 4.11 3.54 89.6 0 0 481.8399 110.4953
  A 4.11 3.54 89.6 0 0 478.2713 106.4101
  A 4.11 3.54 89.6 0 0 474.7601 110.5447
  A 4.11 3.54 89.6 0 0 478.3287 114.6299
  Z"
/>
<path fill="#ffffff" d="
  M 519.7204 122.0298
  A 11.54 11.31 89.7 0 1 508.3502 110.5492
  A 11.54 11.31 89.7 0 1 519.5996 98.9502
  A 11.54 11.31 89.7 0 1 530.9698 110.4308
  A 11.54 11.31 89.7 0 1 519.7204 122.0298
  Z
  M 519.6514 114.5899
  A 4.10 3.55 90.4 0 0 523.2299 110.5148
  A 4.10 3.55 90.4 0 0 519.7086 106.3901
  A 4.10 3.55 90.4 0 0 516.1301 110.4652
  A 4.10 3.55 90.4 0 0 519.6514 114.5899
  Z"
/>
<path fill="#ffffff" d="
  M 0.00 120.94
  L 0.00 99.44
  Q 1.92 98.54 1.93 100.49
  Q 2.01 110.47 1.98 120.44
  A 0.91 0.73 79.3 0 1 1.57 121.21
  Q 0.74 121.65 0.00 120.94
  Z"
/>
<path fill="#ffffff" d="
  M 44.93 101.29
  L 40.25 101.25
  A 0.97 0.77 -11.8 0 1 39.46 100.85
  C 37.93 98.24 51.59 99.26 52.93 99.26
  A 0.88 0.70 -9.5 0 1 53.69 99.68
  Q 53.99 100.35 53.60 100.92
  A 1.12 0.68 8.0 0 1 52.78 101.27
  L 48.07 101.35
  A 0.56 0.52 89.5 0 0 47.56 101.91
  L 47.52 120.51
  A 0.73 0.65 82.5 0 1 47.06 121.19
  Q 46.54 121.34 45.99 121.28
  A 0.60 0.54 -87.4 0 1 45.50 120.69
  L 45.44 101.82
  A 0.53 0.52 -89.4 0 0 44.93 101.29
  Z"
/>
<rect fill="#fcfdfd" fill-opacity="0.996" x="56.25" y="99.25" width="2.00" height="22.00" rx="0.60"/>
<path fill="#ffffff" d="
  M 65.19 101.29
  L 60.81 101.24
  A 0.89 0.68 -8.2 0 1 60.06 100.82
  Q 59.75 100.15 60.15 99.60
  A 1.10 0.78 12.0 0 1 60.98 99.24
  L 73.19 99.26
  A 0.87 0.70 -9.7 0 1 73.94 99.68
  Q 74.24 100.35 73.86 100.92
  A 1.11 0.66 8.5 0 1 73.03 101.26
  L 68.57 101.35
  A 0.55 0.52 89.5 0 0 68.06 101.90
  L 68.02 120.24
  A 1.23 0.90 75.8 0 1 67.67 121.11
  Q 66.96 121.69 66.27 121.12
  A 1.20 0.77 -78.4 0 1 65.94 120.26
  L 65.72 101.80
  A 0.54 0.52 0.0 0 0 65.19 101.29
  Z"
/>
<path fill="#ffffff" d="
  M 78.57 114.66
  C 78.96 121.97 90.74 122.50 90.60 113.27
  Q 90.50 106.50 90.51 99.83
  A 0.67 0.62 84.0 0 1 90.99 99.19
  Q 92.43 98.84 92.50 100.23
  C 92.60 102.33 93.37 114.61 91.60 118.10
  C 89.29 122.68 81.75 123.06 78.58 119.54
  C 75.44 116.06 76.37 104.38 76.56 99.83
  A 0.71 0.67 84.0 0 1 77.05 99.18
  Q 78.56 98.75 78.53 100.23
  Q 78.37 110.70 78.57 114.66
  Z"
/>
<path fill="#fcfdfd" fill-opacity="0.996" d="
  M 99.94 101.29
  L 95.56 101.24
  A 0.89 0.68 -8.2 0 1 94.81 100.82
  Q 94.50 100.15 94.90 99.60
  A 1.11 0.78 11.7 0 1 95.74 99.24
  L 108.19 99.26
  A 0.87 0.70 -9.7 0 1 108.94 99.68
  Q 109.24 100.35 108.85 100.92
  A 1.12 0.68 8.0 0 1 108.03 101.27
  L 103.32 101.35
  A 0.56 0.52 89.5 0 0 102.81 101.91
  L 102.76 120.44
  A 0.87 0.75 79.9 0 1 102.32 121.18
  C 101.22 121.69 100.64 121.01 100.68 119.91
  Q 101.03 110.84 100.47 101.82
  A 0.56 0.54 88.8 0 0 99.94 101.29
  Z"
/>
<path fill="#ffffff" d="
  M 150.80 101.18
  Q 157.32 107.01 153.92 115.57
  C 151.45 121.81 144.80 121.67 138.59 121.14
  A 0.55 0.54 2.3 0 1 138.08 120.60
  L 138.08 99.89
  A 0.53 0.50 -89.0 0 1 138.60 99.36
  L 147.78 99.76
  Q 149.30 99.83 150.80 101.18
  Z
  M 152.44 113.25
  C 154.44 104.62 149.08 99.33 140.49 101.15
  A 0.62 0.61 -6.9 0 0 140.00 101.76
  L 140.06 118.85
  A 0.54 0.54 2.3 0 0 140.56 119.39
  C 146.14 119.83 150.90 119.96 152.44 113.25
  Z"
/>
<path fill="#fcfdfd" fill-opacity="0.996" d="
  M 160.29 110.57
  L 160.34 118.88
  A 0.55 0.52 1.8 0 0 160.86 119.40
  C 161.66 119.45 170.52 118.78 168.86 120.90
  A 1.12 0.87 14.8 0 1 168.01 121.26
  L 158.77 121.21
  A 0.51 0.49 90.0 0 1 158.28 120.70
  L 158.28 99.79
  A 0.51 0.50 -0.0 0 1 158.79 99.29
  L 168.18 99.27
  A 0.89 0.74 -10.1 0 1 168.95 99.71
  Q 169.24 100.36 168.85 100.92
  A 1.10 0.70 10.0 0 1 168.01 101.27
  L 160.90 101.34
  A 0.56 0.52 0.0 0 0 160.34 101.86
  L 160.34 107.37
  A 0.56 0.54 0.5 0 0 160.89 107.91
  L 168.01 107.97
  A 1.15 0.77 -11.1 0 1 168.84 108.32
  Q 169.33 109.01 168.85 109.67
  A 1.11 0.77 11.9 0 1 168.02 110.02
  L 160.82 110.05
  A 0.53 0.52 0.0 0 0 160.29 110.57
  Z"
/>
<path fill="#ffffff" d="
  M 203.87 115.00
  Q 206.30 115.50 206.37 112.68
  Q 206.53 106.38 206.52 100.06
  A 0.53 0.49 -90.0 0 1 207.01 99.53
  L 213.41 99.60
  A 0.56 0.52 90.0 0 1 213.92 100.15
  C 214.03 105.20 214.90 113.83 212.70 117.70
  C 209.51 123.34 199.64 123.44 196.14 117.98
  C 193.69 114.14 194.74 104.85 194.77 100.07
  A 0.54 0.49 -88.9 0 1 195.27 99.54
  L 201.65 99.60
  A 0.54 0.53 -89.5 0 1 202.17 100.14
  L 202.25 112.99
  A 2.07 2.03 -84.5 0 0 203.87 115.00
  Z"
/>
<path fill="#ffffff" d="
  M 226.07 114.19
  L 232.11 114.34
  A 0.57 0.52 1.1 0 1 232.66 114.86
  L 232.65 120.89
  A 0.54 0.52 -0.0 0 1 232.11 121.41
  L 218.35 121.39
  A 0.52 0.51 -90.0 0 1 217.84 120.87
  L 217.83 100.17
  A 0.55 0.50 -90.0 0 1 218.33 99.62
  L 224.92 99.60
  A 0.56 0.51 89.4 0 1 225.43 100.15
  L 225.56 113.68
  A 0.52 0.51 0.6 0 0 226.07 114.19
  Z"
/>
<path fill="#ffffff" d="
  M 235.94 106.81
  L 232.87 106.65
  A 0.57 0.54 1.7 0 1 232.33 106.11
  L 232.35 100.09
  A 0.55 0.52 0.5 0 1 232.90 99.58
  L 247.85 99.58
  A 0.54 0.51 0.0 0 1 248.39 100.09
  L 248.42 106.11
  A 0.58 0.54 -2.3 0 1 247.88 106.65
  L 244.82 106.86
  A 0.54 0.53 -1.7 0 0 244.31 107.39
  L 244.23 120.93
  A 0.53 0.50 -90.0 0 1 243.73 121.46
  L 237.02 121.47
  A 0.53 0.50 89.4 0 1 236.52 120.95
  L 236.44 107.31
  A 0.52 0.50 1.2 0 0 235.94 106.81
  Z"
/>
<path fill="#ffffff" d="
  M 254.19 119.81
  C 249.56 116.66 250.93 105.31 251.08 100.15
  A 0.57 0.50 -88.3 0 1 251.59 99.60
  L 258.02 99.67
  A 0.58 0.49 89.9 0 1 258.50 100.24
  L 258.82 113.54
  A 1.07 0.99 18.6 0 0 259.26 114.35
  C 262.23 116.48 262.77 113.59 262.75 111.47
  Q 262.69 105.80 262.83 100.13
  A 0.54 0.53 -90.0 0 1 263.35 99.60
  L 269.76 99.52
  A 0.56 0.54 87.7 0 1 270.30 100.04
  C 270.71 104.30 271.49 115.66 268.27 118.84
  Q 261.94 125.09 254.19 119.81
  Z"
/>
<path fill="#ffffff" d="
  M 281.06 115.57
  L 280.91 120.88
  A 0.55 0.52 -88.9 0 1 280.39 121.41
  L 274.05 121.47
  A 0.53 0.51 90.0 0 1 273.54 120.94
  L 273.58 100.14
  A 0.53 0.53 -1.7 0 1 274.08 99.61
  C 281.66 99.22 292.99 97.76 291.41 108.47
  Q 290.98 111.43 288.46 112.30
  A 0.76 0.73 64.3 0 0 288.09 113.41
  L 292.79 120.87
  Q 293.09 121.35 292.55 121.35
  L 285.13 121.43
  A 0.96 0.63 70.1 0 1 284.45 120.92
  L 281.37 115.47
  Q 281.08 114.94 281.06 115.57
  Z
  M 281.76 109.47
  C 285.42 109.44 285.37 104.78 281.74 105.24
  A 0.70 0.54 -5.0 0 0 281.12 105.81
  L 281.16 108.96
  A 0.60 0.52 -0.5 0 0 281.76 109.47
  Z"
/>
<path fill="#ffffff" d="
  M 302.07 100.07
  A 0.77 0.69 -79.2 0 1 302.76 99.55
  L 310.27 99.68
  A 0.77 0.67 80.2 0 1 310.92 100.21
  L 317.86 120.72
  A 0.42 0.38 79.4 0 1 317.52 121.27
  L 310.42 121.42
  A 0.69 0.62 82.0 0 1 309.79 120.89
  L 309.44 119.37
  A 0.70 0.57 81.8 0 0 308.86 118.83
  L 304.16 118.82
  A 0.75 0.70 8.8 0 0 303.44 119.31
  L 302.93 120.88
  A 0.76 0.54 -78.5 0 1 302.35 121.42
  L 295.29 121.30
  A 0.41 0.38 -79.4 0 1 294.95 120.76
  L 302.07 100.07
  Z
  M 306.25 108.28
  L 304.94 113.07
  A 0.41 0.39 5.5 0 0 305.37 113.56
  L 307.27 113.46
  A 0.44 0.43 -6.2 0 0 307.69 112.95
  L 306.81 108.33
  Q 306.58 107.10 306.25 108.28
  Z"
/>
<path fill="#ffffff" d="
  M 343.31 110.53
  Q 345.83 111.08 346.31 113.27
  C 348.53 123.38 335.85 121.62 329.04 121.46
  A 0.52 0.51 0.6 0 1 328.53 120.95
  L 328.58 100.14
  A 0.55 0.53 -1.7 0 1 329.10 99.61
  C 334.45 99.38 348.05 97.31 345.16 107.75
  Q 345.09 108.00 344.59 108.50
  L 343.07 110.02
  Q 342.69 110.39 343.31 110.53
  Z
  M 337.13 104.79
  A 1.07 1.07 -76.4 0 0 335.71 105.66
  Q 335.28 109.11 338.05 107.26
  A 1.17 0.89 -19.8 0 0 338.55 106.48
  Q 338.61 105.31 337.13 104.79
  Z
  M 339.07 115.05
  A 1.38 1.38 31.4 0 0 338.56 112.96
  Q 334.77 111.19 335.82 115.34
  A 0.89 0.81 88.7 0 0 336.42 115.97
  Q 338.03 116.40 339.07 115.05
  Z"
/>
<path fill="#ffffff" d="
  M 356.82 115.30
  L 356.50 120.85
  A 0.57 0.44 -88.0 0 1 356.05 121.39
  L 349.59 121.39
  A 0.55 0.51 90.0 0 1 349.08 120.84
  L 349.08 100.15
  A 0.55 0.53 -1.7 0 1 349.60 99.62
  Q 355.17 99.30 360.53 99.69
  C 367.53 100.21 369.86 109.26 363.73 112.52
  A 0.46 0.46 -29.7 0 0 363.55 113.17
  L 368.31 120.87
  Q 368.60 121.34 368.06 121.34
  L 360.68 121.40
  A 0.86 0.74 74.7 0 1 359.96 120.91
  L 357.16 115.27
  Q 356.86 114.66 356.82 115.30
  Z
  M 357.54 105.32
  A 0.91 0.78 3.9 0 0 356.52 106.08
  L 356.56 108.87
  A 0.62 0.55 2.8 0 0 357.13 109.42
  C 360.30 109.67 361.64 105.80 357.54 105.32
  Z"
/>
<path fill="#ffffff" d="
  M 377.04 99.89
  A 0.52 0.47 -79.7 0 1 377.50 99.54
  L 385.14 99.60
  A 0.75 0.68 79.9 0 1 385.80 100.11
  L 392.80 120.82
  A 0.51 0.51 -9.5 0 1 392.32 121.49
  L 385.54 121.48
  A 0.80 0.58 -4.8 0 1 384.80 121.03
  L 384.38 119.38
  A 0.72 0.46 79.9 0 0 383.87 118.83
  L 378.91 118.82
  A 0.80 0.52 -76.7 0 0 378.33 119.37
  L 377.73 121.04
  A 0.83 0.64 7.0 0 1 376.98 121.48
  L 370.73 121.48
  A 0.81 0.80 -80.6 0 1 369.97 120.41
  L 377.04 99.89
  Z
  M 381.28 107.63
  L 379.86 112.79
  A 0.53 0.50 -74.5 0 0 380.20 113.44
  Q 381.21 113.72 382.30 113.37
  A 0.57 0.51 75.5 0 0 382.64 112.72
  L 381.63 107.66
  Q 381.48 106.90 381.28 107.63
  Z"
/>
<rect fill="#ffffff" x="413.76" y="99.50" width="7.74" height="22.00" rx="0.43"/>
<path fill="#ffffff" d="
  M 432.81 114.19
  L 439.12 114.34
  A 0.56 0.52 1.1 0 1 439.66 114.86
  L 439.65 120.89
  A 0.54 0.52 -0.0 0 1 439.11 121.41
  L 425.34 121.39
  A 0.52 0.50 90.0 0 1 424.84 120.87
  L 424.78 100.09
  A 0.55 0.50 -89.5 0 1 425.29 99.54
  L 431.74 99.68
  A 0.55 0.51 -89.5 0 1 432.24 100.23
  L 432.31 113.69
  A 0.51 0.50 0.6 0 0 432.81 114.19
  Z"
/>
<path fill="#ffffff" d="
  M 500.06 114.19
  L 506.37 114.34
  A 0.56 0.52 1.1 0 1 506.91 114.86
  L 506.90 120.89
  A 0.54 0.52 -0.0 0 1 506.36 121.41
  L 492.60 121.39
  A 0.52 0.51 -90.0 0 1 492.09 120.87
  L 492.08 100.17
  A 0.55 0.51 -90.0 0 1 492.59 99.62
  L 498.93 99.60
  A 0.56 0.50 89.4 0 1 499.43 100.15
  L 499.56 113.68
  A 0.51 0.51 0.6 0 0 500.06 114.19
  Z"
/>
<path fill="#ffffff" d="
  M 546.77 110.19
  Q 547.67 104.96 549.54 100.00
  A 0.75 0.66 -77.4 0 1 550.21 99.51
  L 556.94 99.69
  A 0.66 0.59 86.4 0 1 557.51 100.25
  L 560.56 120.77
  A 0.48 0.44 84.9 0 1 560.14 121.32
  L 553.94 121.49
  A 0.60 0.56 86.1 0 1 553.37 120.95
  L 552.09 110.23
  Q 552.02 109.72 551.89 110.21
  L 549.00 120.64
  A 0.92 0.86 -88.8 0 1 548.39 121.27
  Q 546.50 121.77 544.62 121.44
  A 0.84 0.79 85.6 0 1 543.98 120.86
  L 540.88 110.21
  Q 540.74 109.72 540.68 110.23
  L 539.60 120.81
  A 0.63 0.54 -86.5 0 1 539.05 121.37
  L 532.66 121.35
  A 0.49 0.44 -84.4 0 1 532.24 120.78
  L 535.56 100.15
  A 0.65 0.60 -85.4 0 1 536.15 99.61
  L 543.13 99.59
  A 0.71 0.59 81.3 0 1 543.73 100.12
  L 546.53 110.21
  Q 546.68 110.73 546.77 110.19
  Z"
/>
<path fill="#ffffff" d="
  M 577.30 110.54
  Q 580.39 111.27 580.50 114.31
  C 580.84 123.86 568.49 121.65 563.08 121.38
  A 0.53 0.53 1.1 0 1 562.57 120.85
  L 562.54 100.05
  A 0.51 0.51 0.0 0 1 563.05 99.54
  C 566.84 99.54 573.45 98.66 576.63 100.53
  Q 582.47 103.96 577.15 110.06
  A 0.30 0.29 -62.8 0 0 577.30 110.54
  Z
  M 571.06 104.86
  Q 569.00 104.68 569.77 107.08
  A 0.74 0.73 83.1 0 0 570.43 107.60
  Q 573.65 107.80 571.86 105.33
  A 1.14 1.10 74.4 0 0 571.06 104.86
  Z
  M 573.11 114.56
  Q 573.20 112.14 570.55 112.48
  A 0.75 0.73 -87.0 0 0 569.94 113.04
  Q 568.80 117.66 572.64 115.33
  A 0.98 0.92 -15.2 0 0 573.11 114.56
  Z"
/>
<rect fill="#ffffff" x="582.75" y="99.50" width="7.76" height="22.00" rx="0.60"/>
<path fill="#ffffff" d="
  M 599.38 100.15
  A 0.96 0.95 -80.6 0 1 600.28 99.50
  L 607.49 99.52
  A 0.72 0.71 -9.0 0 1 608.17 100.01
  L 615.28 120.98
  A 0.36 0.36 80.7 0 1 614.94 121.46
  L 608.02 121.49
  A 0.81 0.68 -7.9 0 1 607.28 121.03
  L 606.70 119.36
  A 0.79 0.53 76.6 0 0 606.12 118.82
  L 601.42 118.82
  A 0.70 0.65 -81.9 0 0 600.78 119.34
  L 600.33 120.95
  A 0.69 0.62 -81.2 0 1 599.70 121.46
  L 592.66 121.33
  A 0.40 0.38 -79.4 0 1 592.32 120.80
  L 599.38 100.15
  Z
  M 603.58 107.13
  L 602.33 112.80
  A 0.54 0.51 -76.9 0 0 602.70 113.43
  Q 603.73 113.69 604.81 113.42
  A 0.52 0.50 76.0 0 0 605.17 112.79
  L 603.71 107.13
  Q 603.64 106.87 603.58 107.13
  Z"
/>
</svg>
