<?xml version="1.0" encoding="utf-8"?>
<!-- Generator: Adobe Illustrator 24.1.0, SVG Export Plug-In . SVG Version: 6.00 Build 0)  -->
<svg version="1.1" fill="#ff6719" id="Capa_1" xmlns="http://www.w3.org/2000/svg" xmlns:xlink="http://www.w3.org/1999/xlink" x="0px" y="0px"
	 viewBox="0 0 384 512" style="enable-background:new 0 0 384 512;" xml:space="preserve">
<path d="M165.5,215.8c-1.1-26.9-32.6-25.1-50.9-24.7c-0.3,0-0.6,0.3-0.6,0.7c0,22.9-0.4,39.6-0.1,53.4c0,0.4,0.3,0.6,0.7,0.7
	C136.2,247.2,166.7,245.5,165.5,215.8z M165.5,215.8c-1.1-26.9-32.6-25.1-50.9-24.7c-0.3,0-0.6,0.3-0.6,0.7
	c0,22.9-0.4,39.6-0.1,53.4c0,0.4,0.3,0.6,0.7,0.7C136.2,247.2,166.7,245.5,165.5,215.8z M192.4,62.2C87.2,62.2,2,147.5,2,252.7
	c0,105.2,85.3,190.4,190.5,190.4s190.5-85.3,190.5-190.4C382.9,147.5,297.6,62.2,192.4,62.2z M202.3,220.1
	c-1.2,49.3-47.4,61.2-87.9,57c-0.3,0-0.6,0.2-0.6,0.5c0,0,0,0,0,0.1l-0.1,53.7c0,0.3-0.3,0.6-0.6,0.6L78,332.2
	c-0.3,0-0.6-0.3-0.6-0.6V160.8c0-1,0.8-1.8,1.8-1.8c17.8-0.5,34.3-0.9,49.7-1C169,157.6,203.4,174.5,202.3,220.1z M315,297.6
	c-3.6,40.3-53,41.7-81.7,35.2c-4.9-1.1-9-2.6-12.3-4.5c-1.7-1-2.6-2.5-2.5-4.5l0.5-27.5c0-2.1,0.9-2.7,2.5-1.8
	c12.6,6.8,26.1,10.2,40.4,10.4c4.8,0.1,13.5-0.7,16.1-5.3c3.5-6.2-4.6-11-10.2-13.3c-20.1-8.3-46-16.8-48.2-42.8
	c-2.2-26.7,19.4-43.5,44.2-44.8c13.5-0.7,31-0.2,43.5,5.7c0.6,0.3,1,0.9,1,1.5c0,8.8,0,17.6,0,26.6c0,5.2-3.2,4.3-6.6,2.8
	c-11.7-4.9-24.4-6.9-38.1-5.8c-8.1,0.7-13.5,8.9-4.8,14C281.9,256.9,318.2,261,315,297.6z M114.7,191.1c-0.3,0-0.6,0.3-0.6,0.7
	c0,22.9-0.4,39.6-0.1,53.4c0,0.4,0.3,0.6,0.7,0.7c21.6,1.3,52.1-0.4,50.9-30C164.4,188.9,132.9,190.7,114.7,191.1z"/>
</svg>
