<?xml version="1.0" encoding="utf-8"?>
<!-- Generator: Adobe Illustrator 24.1.0, SVG Export Plug-In . SVG Version: 6.00 Build 0)  -->
<svg version="1.1" fill="#ff6719" id="Capa_1" xmlns="http://www.w3.org/2000/svg" xmlns:xlink="http://www.w3.org/1999/xlink" x="0px" y="0px"
	 viewBox="0 0 384 512" style="enable-background:new 0 0 384 512;" xml:space="preserve">
<path d="M126.7,226.3c-2.7,0.8-5.4,1.6-8.1,2.6c-21.3,7.4-36,18.3-36,26.9c0.9,5.7,4.1,10.7,8.8,14c8.2,6.5,19.5,11.4,29.4,14.6
	c1.9,0.6,3.8,1.3,5.8,1.8c3.2-10.3,7.1-20.4,11.6-30.1C133.7,246.4,129.8,236.5,126.7,226.3z M136.4,223.9c2,6.6,4.5,13.4,7.5,20.3
	c2.1-4.1,4.3-8.2,6.6-12.1c2.3-4,4.7-8,7.2-11.9C150.3,221.2,143.1,222.4,136.4,223.9z M150.6,280c-2.3-4-4.5-8.1-6.7-12.2
	c-3,7.1-5.6,14-7.6,20.8c7.1,1.5,14.4,2.7,21.6,3.5C155.4,288.1,152.9,284.1,150.6,280z M165.3,302.8c-10.7-0.8-21.2-2.3-31.7-4.6
	c-0.7,2.6-1.2,5.2-1.7,7.8c-4.2,22.2-1.1,38.6,6.3,42.9c5.3,2.1,11.3,1.9,16.5-0.6c9.7-3.8,18.6-9.4,26.3-16.5
	c1.5-1.3,3-2.7,4.5-4.2C178.2,319.9,171.4,311.5,165.3,302.8z M181.5,181.3c-18.3-16.2-35.8-22.8-43.6-18.2
	c-7.4,4.3-10.3,21.3-5.9,43.9c0.5,2.4,1,4.9,1.6,7.2c10.4-2.3,20.8-3.9,31.4-4.8c6.1-8.7,12.8-17,20-24.8
	C183.9,183.5,182.7,182.3,181.5,181.3z M192.1,191.7c-4.7,5.1-9.4,10.7-14,16.7c9.2-0.4,18.5-0.4,27.8,0
	C201.6,202.7,197,197,192.1,191.7z M192,303.9c-4.7,0-9.3-0.1-13.8-0.3c4.6,6.1,9.4,11.8,14.1,16.9c4.9-5.4,9.5-11.1,13.8-17
	C201.5,303.8,196.8,303.9,192,303.9z M224.8,237c-3.6-6.2-7.4-12.2-11.3-18.1c-7-0.5-14.1-0.8-21.4-0.8s-14.4,0.3-21.4,0.8
	c-4,5.9-7.8,12-11.4,18.2c-3.5,6.2-6.9,12.5-10,18.9c3.1,6.4,6.4,12.7,10,18.9c3.6,6.2,7.4,12.3,11.5,18.2c6.9,0.4,14,0.7,21.3,0.7
	s14.6-0.2,21.5-0.8c4-6,7.8-12,11.3-18.2c3.6-6.3,7-12.6,10.1-19C231.7,249.5,228.3,243.2,224.8,237z M192,277.4
	c-11.8,0-21.4-9.6-21.4-21.4s9.6-21.4,21.4-21.4s21.4,9.6,21.4,21.4S203.8,277.4,192,277.4z M226.3,220.2c2.5,3.9,4.9,7.8,7.1,11.8
	c2.3,4,4.6,8.1,6.8,12.2c2.8-6.6,5.4-13.3,7.5-20.3C241,222.4,233.8,221.2,226.3,220.2z M240.3,267.5c-2.2,4.2-4.4,8.4-6.8,12.5
	c-2.3,4-4.7,8-7.2,12c7.4-0.8,14.7-2.1,21.9-3.7C245.9,281.1,243.3,274.2,240.3,267.5z M245.5,162.8c-7.4-4.2-23.6,1.7-40.9,16.8
	c-1.9,1.6-3.6,3.3-5.5,5c7.2,7.8,13.8,16.1,19.9,24.8c10.6,0.9,21.1,2.6,31.4,4.9c0.4-1.5,0.8-3.1,1.1-4.7
	C256.4,185.6,253.4,167.3,245.5,162.8z M252.2,303.6c-0.4-1.9-0.8-3.8-1.3-5.7c-10.5,2.4-21.1,4-31.8,4.9c-6,8.8-12.5,17.1-19.7,25
	c2,1.9,4,3.7,5.9,5.4c17.1,14.7,32.9,20.3,40.3,16c4.5-3.6,7.3-8.9,7.7-14.6C254.9,324.2,254.5,313.7,252.2,303.6z M264.4,228.6
	c-2.2-0.8-4.6-1.5-7-2.2c-3.2,10-7,19.8-11.4,29.3c4.6,9.7,8.6,19.6,11.9,29.8c1.3-0.4,2.7-0.8,4-1.2c23.3-7.7,39.6-19.5,39.6-28.6
	C301.4,247.2,286.2,236.1,264.4,228.6z M264.4,228.6c-2.2-0.8-4.6-1.5-7-2.2c-3.2,10-7,19.8-11.4,29.3c4.6,9.7,8.6,19.6,11.9,29.8
	c1.3-0.4,2.7-0.8,4-1.2c23.3-7.7,39.6-19.5,39.6-28.6C301.4,247.2,286.2,236.1,264.4,228.6z M250.9,297.9c-10.5,2.4-21.1,4-31.8,4.9
	c-6,8.8-12.5,17.1-19.7,25c2,1.9,4,3.7,5.9,5.4c17.1,14.7,32.9,20.3,40.3,16c4.5-3.6,7.3-8.9,7.7-14.6c1.5-10.4,1.1-20.9-1.2-30.9
	C251.8,301.7,251.4,299.8,250.9,297.9z M250.4,214.3c0.4-1.5,0.8-3.1,1.1-4.7c5-24,1.9-42.3-6-46.9c-7.4-4.2-23.6,1.7-40.9,16.8
	c-1.9,1.6-3.6,3.3-5.5,5c7.2,7.8,13.8,16.1,19.9,24.8C229.5,210.3,240,212,250.4,214.3z M240.3,267.5c-2.2,4.2-4.4,8.4-6.8,12.5
	c-2.3,4-4.7,8-7.2,12c7.4-0.8,14.7-2.1,21.9-3.7C245.9,281.1,243.3,274.2,240.3,267.5z M226.3,220.2c2.5,3.9,4.9,7.8,7.1,11.8
	c2.3,4,4.6,8.1,6.8,12.2c2.8-6.6,5.4-13.3,7.5-20.3C241,222.4,233.8,221.2,226.3,220.2z M170.7,293.2c6.9,0.4,14,0.7,21.3,0.7
	s14.6-0.2,21.5-0.8c4-6,7.8-12,11.3-18.2c3.6-6.3,7-12.6,10.1-19c-3.2-6.4-6.5-12.7-10.1-18.9c-3.6-6.2-7.4-12.2-11.3-18.1
	c-7-0.5-14.1-0.8-21.4-0.8s-14.4,0.3-21.4,0.8c-4,5.9-7.8,12-11.4,18.2c-3.5,6.2-6.9,12.5-10,18.9c3.1,6.4,6.4,12.7,10,18.9
	C162.8,281.2,166.7,287.3,170.7,293.2z M192,234.6c11.8,0,21.4,9.6,21.4,21.4s-9.6,21.4-21.4,21.4s-21.4-9.6-21.4-21.4
	S180.2,234.6,192,234.6z M192,303.9c-4.7,0-9.3-0.1-13.8-0.3c4.6,6.1,9.4,11.8,14.1,16.9c4.9-5.4,9.5-11.1,13.8-17
	C201.5,303.8,196.8,303.9,192,303.9z M205.9,208.4c-4.3-5.8-8.9-11.4-13.8-16.7c-4.7,5.1-9.4,10.7-14,16.7
	C187.4,208,196.7,208,205.9,208.4z M133.7,214.2c10.4-2.3,20.8-3.9,31.4-4.8c6.1-8.7,12.8-17,20-24.8c-1.2-1.1-2.4-2.2-3.5-3.3
	c-18.3-16.2-35.8-22.8-43.6-18.2c-7.4,4.3-10.3,21.3-5.9,43.9C132.6,209.4,133.1,211.8,133.7,214.2z M133.6,298.2
	c-0.7,2.6-1.2,5.2-1.7,7.8c-4.2,22.2-1.1,38.6,6.3,42.9c5.3,2.1,11.3,1.9,16.5-0.6c9.7-3.8,18.6-9.4,26.3-16.5
	c1.5-1.3,3-2.7,4.5-4.2c-7.2-7.8-14-16.2-20.2-24.9C154.6,302,144,300.5,133.6,298.2z M157.9,292.1c-2.6-4-5-8-7.4-12.1
	c-2.3-4-4.5-8.1-6.7-12.2c-3,7.1-5.6,14-7.6,20.8C143.4,290.2,150.7,291.3,157.9,292.1z M157.7,220.2c-7.4,0.9-14.6,2.2-21.3,3.6
	c2,6.6,4.5,13.4,7.5,20.3c2.1-4.1,4.3-8.2,6.6-12.1C152.8,228.1,155.2,224.1,157.7,220.2z M126.7,226.3c-2.7,0.8-5.4,1.6-8.1,2.6
	c-21.3,7.4-36,18.3-36,26.9c0.9,5.7,4.1,10.7,8.8,14c8.2,6.5,19.5,11.4,29.4,14.6c1.9,0.6,3.8,1.3,5.8,1.8
	c3.2-10.3,7.1-20.4,11.6-30.1C133.7,246.4,129.8,236.5,126.7,226.3z M192,65C86.5,65,1,150.5,1,256s85.5,191,191,191
	s191-85.5,191-191S297.5,65,192,65z M265,293.9c-1.4,0.5-2.9,0.9-4.4,1.4c0.5,2.1,1,4.3,1.4,6.3c5.3,26.9,1.2,49-11.4,56.2
	c-12.2,7-31.9,0.1-51.9-17.1c-2.2-1.9-4.3-3.8-6.4-5.8c-1.6,1.6-3.3,3.1-4.9,4.5c-20.6,18.1-41.8,25.5-54.4,18.2
	c-12.2-7-16.1-27.6-11.2-53.5c0.6-2.8,1.2-5.6,1.9-8.4c-2.2-0.6-4.3-1.3-6.4-2c-25.9-8.9-44.9-23.5-44.9-38
	c0-14.1,17.9-27.7,42.8-36.3c2.8-1,5.7-1.9,8.7-2.8c-0.7-2.6-1.2-5.2-1.7-7.8c-5.1-26.3-1.5-47.4,10.7-54.5
	c12.7-7.4,34,0.5,55.3,19.4c1.3,1.2,2.6,2.4,3.9,3.6c1.9-1.8,3.8-3.6,5.8-5.4c20.3-17.6,40.3-25,52.6-17.9
	c12.7,7.4,16.5,29.7,10.8,57.5c-0.4,1.7-0.7,3.5-1.2,5.2c2.5,0.8,5,1.5,7.6,2.4c25.4,8.7,43.8,22.4,43.8,36.6
	C311.5,270.6,292,285,265,293.9z M264.4,228.6c-2.2-0.8-4.6-1.5-7-2.2c-3.2,10-7,19.8-11.4,29.3c4.6,9.7,8.6,19.6,11.9,29.8
	c1.3-0.4,2.7-0.8,4-1.2c23.3-7.7,39.6-19.5,39.6-28.6C301.4,247.2,286.2,236.1,264.4,228.6z M250.9,297.9c-10.5,2.4-21.1,4-31.8,4.9
	c-6,8.8-12.5,17.1-19.7,25c2,1.9,4,3.7,5.9,5.4c17.1,14.7,32.9,20.3,40.3,16c4.5-3.6,7.3-8.9,7.7-14.6c1.5-10.4,1.1-20.9-1.2-30.9
	C251.8,301.7,251.4,299.8,250.9,297.9z M250.4,214.3c0.4-1.5,0.8-3.1,1.1-4.7c5-24,1.9-42.3-6-46.9c-7.4-4.2-23.6,1.7-40.9,16.8
	c-1.9,1.6-3.6,3.3-5.5,5c7.2,7.8,13.8,16.1,19.9,24.8C229.5,210.3,240,212,250.4,214.3z M240.3,267.5c-2.2,4.2-4.4,8.4-6.8,12.5
	c-2.3,4-4.7,8-7.2,12c7.4-0.8,14.7-2.1,21.9-3.7C245.9,281.1,243.3,274.2,240.3,267.5z M226.3,220.2c2.5,3.9,4.9,7.8,7.1,11.8
	c2.3,4,4.6,8.1,6.8,12.2c2.8-6.6,5.4-13.3,7.5-20.3C241,222.4,233.8,221.2,226.3,220.2z M170.7,293.2c6.9,0.4,14,0.7,21.3,0.7
	s14.6-0.2,21.5-0.8c4-6,7.8-12,11.3-18.2c3.6-6.3,7-12.6,10.1-19c-3.2-6.4-6.5-12.7-10.1-18.9c-3.6-6.2-7.4-12.2-11.3-18.1
	c-7-0.5-14.1-0.8-21.4-0.8s-14.4,0.3-21.4,0.8c-4,5.9-7.8,12-11.4,18.2c-3.5,6.2-6.9,12.5-10,18.9c3.1,6.4,6.4,12.7,10,18.9
	C162.8,281.2,166.7,287.3,170.7,293.2z M192,234.6c11.8,0,21.4,9.6,21.4,21.4s-9.6,21.4-21.4,21.4s-21.4-9.6-21.4-21.4
	S180.2,234.6,192,234.6z M192,303.9c-4.7,0-9.3-0.1-13.8-0.3c4.6,6.1,9.4,11.8,14.1,16.9c4.9-5.4,9.5-11.1,13.8-17
	C201.5,303.8,196.8,303.9,192,303.9z M205.9,208.4c-4.3-5.8-8.9-11.4-13.8-16.7c-4.7,5.1-9.4,10.7-14,16.7
	C187.4,208,196.7,208,205.9,208.4z M133.7,214.2c10.4-2.3,20.8-3.9,31.4-4.8c6.1-8.7,12.8-17,20-24.8c-1.2-1.1-2.4-2.2-3.5-3.3
	c-18.3-16.2-35.8-22.8-43.6-18.2c-7.4,4.3-10.3,21.3-5.9,43.9C132.6,209.4,133.1,211.8,133.7,214.2z M133.6,298.2
	c-0.7,2.6-1.2,5.2-1.7,7.8c-4.2,22.2-1.1,38.6,6.3,42.9c5.3,2.1,11.3,1.9,16.5-0.6c9.7-3.8,18.6-9.4,26.3-16.5
	c1.5-1.3,3-2.7,4.5-4.2c-7.2-7.8-14-16.2-20.2-24.9C154.6,302,144,300.5,133.6,298.2z M157.9,292.1c-2.6-4-5-8-7.4-12.1
	c-2.3-4-4.5-8.1-6.7-12.2c-3,7.1-5.6,14-7.6,20.8C143.4,290.2,150.7,291.3,157.9,292.1z M157.7,220.2c-7.4,0.9-14.6,2.2-21.3,3.6
	c2,6.6,4.5,13.4,7.5,20.3c2.1-4.1,4.3-8.2,6.6-12.1C152.8,228.1,155.2,224.1,157.7,220.2z M126.7,226.3c-2.7,0.8-5.4,1.6-8.1,2.6
	c-21.3,7.4-36,18.3-36,26.9c0.9,5.7,4.1,10.7,8.8,14c8.2,6.5,19.5,11.4,29.4,14.6c1.9,0.6,3.8,1.3,5.8,1.8
	c3.2-10.3,7.1-20.4,11.6-30.1C133.7,246.4,129.8,236.5,126.7,226.3z"/>
</svg>
